<?xml version="1.0" standalone="no"?>
<!DOCTYPE svg PUBLIC "-//W3C//DTD SVG 20010904//EN"
 "http://www.w3.org/TR/2001/REC-SVG-20010904/DTD/svg10.dtd">
<svg version="1.0" xmlns="http://www.w3.org/2000/svg"
 width="540.000000pt" height="540.000000pt" viewBox="0 0 540.000000 540.000000"
 preserveAspectRatio="xMidYMid meet">
<metadata>
Created by potrace 1.14, written by Peter Selinger 2001-2017
</metadata>
<g transform="translate(0.000000,540.000000) scale(0.100000,-0.100000)"
fill="#000000" stroke="none">
<path d="M2665 5387 c-11 -7 -22 -14 -25 -17 -4 -5 -216 -130 -304 -179 -17
-10 -54 -32 -82 -48 -27 -17 -70 -41 -95 -55 -24 -14 -96 -56 -159 -93 -63
-37 -128 -75 -145 -85 -16 -9 -109 -63 -205 -120 -96 -56 -193 -112 -215 -125
-51 -28 -385 -222 -405 -235 -71 -43 -154 -90 -161 -90 -5 0 -9 -4 -9 -10 0
-5 -4 -10 -10 -10 -5 0 -33 -14 -62 -31 -29 -18 -66 -40 -83 -49 -16 -10 -82
-48 -145 -85 -63 -38 -127 -75 -142 -84 l-28 -16 0 -1361 0 -1360 33 -17 c17
-9 61 -33 97 -53 36 -19 79 -43 95 -52 17 -10 32 -20 35 -23 3 -3 66 -41 140
-84 74 -43 151 -87 170 -98 19 -11 49 -28 65 -38 17 -10 39 -23 50 -29 11 -5
38 -21 60 -34 22 -14 51 -31 65 -39 44 -24 97 -55 256 -148 85 -49 176 -102
202 -116 26 -14 64 -37 84 -50 21 -12 40 -23 42 -23 2 0 72 -40 156 -90 84
-49 156 -90 161 -90 5 0 9 -5 9 -11 0 -5 4 -8 9 -5 5 3 14 -1 21 -9 7 -8 16
-15 21 -15 5 0 38 -18 74 -40 36 -22 70 -40 75 -40 6 0 10 -4 10 -10 0 -5 4
-10 9 -10 4 0 61 -31 125 -70 64 -38 120 -70 126 -70 5 0 10 -5 10 -11 0 -5 4
-8 9 -5 5 3 14 -1 21 -9 7 -8 18 -15 25 -15 7 0 18 -7 25 -15 7 -8 21 -15 32
-15 19 0 146 69 181 98 9 8 17 12 17 8 0 -4 15 3 32 16 18 13 40 28 50 33 9 6
88 52 175 104 168 100 177 105 293 172 41 23 77 45 80 48 3 3 21 15 40 25 19
10 54 32 78 48 24 15 45 28 47 28 2 0 120 69 262 153 142 85 282 167 310 183
29 16 53 32 53 37 0 4 5 7 11 7 9 0 344 194 441 256 21 13 40 24 42 24 5 0
108 62 116 70 3 3 19 12 35 20 17 8 33 19 37 25 4 5 8 619 8 1363 0 1233 -1
1352 -16 1352 -9 0 -61 27 -115 60 -54 33 -125 74 -156 91 -32 17 -69 39 -83
48 -14 9 -38 23 -55 31 -16 8 -32 17 -35 20 -7 8 -109 70 -115 70 -3 0 -28 15
-57 33 -29 19 -78 47 -108 64 -30 17 -100 57 -155 90 -55 32 -107 62 -115 66
-8 4 -33 18 -55 32 -22 14 -49 30 -60 35 -11 6 -33 19 -50 30 -16 11 -37 23
-45 27 -8 3 -82 46 -163 95 -82 48 -151 88 -153 88 -3 0 -33 17 -67 38 -34 20
-71 43 -82 49 -11 6 -56 33 -99 59 -44 25 -94 54 -110 64 -107 61 -165 95
-191 111 -16 11 -41 25 -55 32 -14 6 -57 31 -97 55 -78 46 -79 46 -108 29z"/>
</g>
</svg>
